<svg width="64" height="64" viewBox="0 0 64 64" fill="none" xmlns="http://www.w3.org/2000/svg">
<circle cx="32" cy="32" r="32" fill="#EDF7FF"/>
<path d="M29.2697 47.0996H40.9527V48.2473C40.9527 48.6834 40.5969 49.0392 40.1608 49.0392H16.3585C15.9224 49.0392 15.5666 48.6834 15.5666 48.2473V24.3414H22.3667C23.0954 24.3414 23.7266 23.9053 24.0193 23.2855H37.1658C37.4527 23.2855 37.6822 23.056 37.6822 22.7691C37.6822 22.4822 37.4527 22.2527 37.1658 22.2527H24.1915V15.7112H40.1611C40.5972 15.7112 40.953 16.0669 40.953 16.503V29.6841L40.1037 28.1978C39.5299 27.1936 38.497 26.5911 37.3379 26.5911C36.1788 26.5911 35.1458 27.1936 34.572 28.1978L34.3138 28.6512H19.3542C19.0672 28.6512 18.8377 28.8807 18.8377 29.1676C18.8377 29.4545 19.0673 29.684 19.3542 29.684H33.7288L30.6588 35.0551H19.3544C19.0675 35.0551 18.838 35.2846 18.838 35.5715C18.838 35.8584 19.0675 36.088 19.3544 36.088H30.0679L26.9979 41.459H19.3546C19.0677 41.459 18.8382 41.6886 18.8382 41.9755C18.8382 42.2624 19.0677 42.4919 19.3546 42.4919H26.4242C25.9422 43.4559 25.9709 44.5634 26.516 45.5045C27.0898 46.503 28.122 47.0996 29.2697 47.0996ZM23.1582 22.5165V15.7109L15.5664 23.3087H22.3664C22.8026 23.3087 23.1582 22.9526 23.1582 22.5165ZM45.4115 46.0665H29.2697C27.617 46.0665 26.5841 44.2819 27.399 42.8474L35.4726 28.714C36.299 27.268 38.382 27.268 39.2083 28.714L47.282 42.8474C48.0969 44.2819 47.0642 46.0665 45.4115 46.0665ZM38.0723 42.4801C38.0723 41.9924 37.6764 41.5907 37.1829 41.5907C36.6951 41.5907 36.2934 41.9866 36.2934 42.4801C36.2934 42.9736 36.6894 43.3696 37.1829 43.3696C37.6764 43.3696 38.0723 42.9679 38.0723 42.4801ZM38.0723 33.3906C38.0723 32.9029 37.6764 32.5012 37.1829 32.5012C36.6951 32.5012 36.2934 32.8971 36.2934 33.3906V38.5549C36.2934 39.0427 36.6894 39.4444 37.1829 39.4444C37.6706 39.4444 38.0723 39.0484 38.0723 38.5549V33.3906Z" fill="#2BA1F3"/>
<path d="M37 38.5234V33.0008" stroke="#F09E24" stroke-width="2.5" stroke-linecap="round"/>
<circle cx="37" cy="43" r="2" fill="#F09E24"/>
</svg>
