<svg width="32" height="32" viewBox="0 0 32 32" fill="none" xmlns="http://www.w3.org/2000/svg">
<path d="M16 0C12.8355 0 9.74207 0.938383 7.11088 2.69649C4.4797 4.45459 2.42894 6.95345 1.21793 9.87706C0.00693257 12.8007 -0.309921 16.0177 0.307443 19.1214C0.924806 22.2251 2.44866 25.0761 4.6863 27.3137C6.92394 29.5513 9.77486 31.0752 12.8786 31.6926C15.9823 32.3099 19.1993 31.9931 22.1229 30.7821C25.0466 29.5711 27.5454 27.5203 29.3035 24.8891C31.0616 22.2579 32 19.1645 32 16C31.9944 11.7583 30.3069 7.69186 27.3075 4.6925C24.3081 1.69313 20.2417 0.00561796 16 0ZM14.8267 25.14C14.8267 24.8921 14.9002 24.6498 15.0379 24.4437C15.1756 24.2376 15.3714 24.0769 15.6004 23.9821C15.8294 23.8872 16.0814 23.8624 16.3245 23.9107C16.5676 23.9591 16.791 24.0785 16.9662 24.2538C17.1415 24.429 17.2609 24.6524 17.3093 24.8955C17.3576 25.1386 17.3328 25.3906 17.2379 25.6196C17.1431 25.8486 16.9824 26.0444 16.7763 26.1821C16.5702 26.3198 16.3279 26.3933 16.08 26.3933C15.7479 26.3922 15.4298 26.2598 15.195 26.025C14.9602 25.7902 14.8278 25.4721 14.8267 25.14ZM17.3333 17.2V20.6667C17.3333 21.0203 17.1929 21.3594 16.9428 21.6095C16.6928 21.8595 16.3536 22 16 22C15.6464 22 15.3072 21.8595 15.0572 21.6095C14.8071 21.3594 14.6667 21.0203 14.6667 20.6667V16C14.6677 15.6467 14.8085 15.3082 15.0583 15.0583C15.3082 14.8085 15.6467 14.6677 16 14.6667C17.6533 14.6667 19.3333 13.6667 19.3333 11.7667C19.3324 10.9035 18.9896 10.0758 18.3799 9.46485C17.7701 8.85386 16.9432 8.50933 16.08 8.50666C15.4766 8.52037 14.8884 8.6983 14.3786 9.02133C13.8688 9.34436 13.4567 9.80026 13.1867 10.34C13.0225 10.652 12.7416 10.8865 12.4053 10.9923C12.0689 11.0981 11.7044 11.0666 11.3911 10.9047C11.0779 10.7428 10.8414 10.4636 10.7331 10.1281C10.6249 9.79249 10.6537 9.42774 10.8133 9.11333C11.4069 7.92013 12.3869 6.96294 13.5937 6.39754C14.8005 5.83213 16.1632 5.69179 17.4599 5.99936C18.7567 6.30693 19.9111 7.0443 20.7355 8.09147C21.5598 9.13864 22.0055 10.434 22 11.7667C21.9946 13.0791 21.522 14.3468 20.6669 15.3424C19.8117 16.338 18.6299 16.9966 17.3333 17.2Z" fill="#2BA1F3"/>
</svg>
