<svg width="28" height="21" viewBox="0 0 28 21" fill="none" xmlns="http://www.w3.org/2000/svg">
<path fill-rule="evenodd" clip-rule="evenodd" d="M0 2.92424C0 1.58545 1.08545 0.5 2.42424 0.5H24.8485C26.1873 0.5 27.2727 1.58545 27.2727 2.92424V18.0758C27.2727 19.4145 26.1873 20.5 24.8485 20.5H2.42424C1.08545 20.5 0 19.4145 0 18.0758V2.92424ZM7.57576 10.6515C8.91455 10.6515 10 9.56606 10 8.22727C10 6.88848 8.91455 5.80303 7.57576 5.80303C6.23697 5.80303 5.15152 6.88848 5.15152 8.22727C5.15152 9.56606 6.23697 10.6515 7.57576 10.6515ZM6.26303 11.5606C4.478 11.5606 3.0303 13.0083 3.0303 14.7933C3.0303 15.0159 3.21141 15.197 3.43394 15.197H11.7176C11.9401 15.197 12.1212 15.0159 12.1212 14.7933C12.1212 13.0083 10.6735 11.5606 8.88848 11.5606H6.26303ZM14.5455 7.16667C14.5455 6.66479 14.9527 6.25758 15.4545 6.25758H23.3333C23.8352 6.25758 24.2424 6.66479 24.2424 7.16667C24.2424 7.66855 23.8352 8.07576 23.3333 8.07576H15.4545C14.9527 8.07576 14.5455 7.66855 14.5455 7.16667ZM14.5455 10.5C14.5455 9.99812 14.9527 9.59091 15.4545 9.59091H23.3333C23.8352 9.59091 24.2424 9.99812 24.2424 10.5C24.2424 11.0019 23.8352 11.4091 23.3333 11.4091H15.4545C14.9527 11.4091 14.5455 11.0019 14.5455 10.5ZM14.5455 13.8333C14.5455 13.3315 14.9527 12.9242 15.4545 12.9242H23.3333C23.8352 12.9242 24.2424 13.3315 24.2424 13.8333C24.2424 14.3352 23.8352 14.7424 23.3333 14.7424H15.4545C14.9527 14.7424 14.5455 14.3352 14.5455 13.8333Z" fill="black"/>
</svg>
