<svg width="33" height="32" viewBox="0 0 33 32" fill="none" xmlns="http://www.w3.org/2000/svg">
<path d="M16.9681 2.66602C9.62143 2.66602 3.63477 8.65268 3.63477 15.9993C3.63477 23.346 9.62143 29.3327 16.9681 29.3327C24.3148 29.3327 30.3014 23.346 30.3014 15.9993C30.3014 8.65268 24.3148 2.66602 16.9681 2.66602ZM11.6348 17.3327C10.8881 17.3327 10.3014 16.7327 10.3014 15.9993C10.3014 15.266 10.9014 14.666 11.6348 14.666C12.3681 14.666 12.9681 15.266 12.9681 15.9993C12.9681 16.7327 12.3814 17.3327 11.6348 17.3327ZM16.9681 17.3327C16.2214 17.3327 15.6348 16.7327 15.6348 15.9993C15.6348 15.266 16.2348 14.666 16.9681 14.666C17.7014 14.666 18.3014 15.266 18.3014 15.9993C18.3014 16.7327 17.7148 17.3327 16.9681 17.3327ZM22.3014 17.3327C21.5548 17.3327 20.9681 16.7327 20.9681 15.9993C20.9681 15.266 21.5681 14.666 22.3014 14.666C23.0348 14.666 23.6348 15.266 23.6348 15.9993C23.6348 16.7327 23.0481 17.3327 22.3014 17.3327Z" fill="#2BA1F3"/>
</svg>
