<svg width="33" height="32" viewBox="0 0 33 32" fill="none" xmlns="http://www.w3.org/2000/svg">
<path d="M6.66965 29.6157C6.66965 30.216 6.86505 30.7698 7.19399 31.2281L4.86184 31.491C4.0676 31.581 3.35488 30.9892 3.26491 30.171L0.470288 5.07713C0.38032 4.26041 0.949637 3.52519 1.74531 3.44224L6.67124 2.89541V29.6159L6.66965 29.6157ZM24.7615 7.70853H32.4609V29.6157C32.4609 30.5224 31.7257 31.2576 30.819 31.2576H9.43617C8.52947 31.2576 7.79425 30.5224 7.79425 29.6157V1.64973C7.79425 0.74303 8.52947 0.0078125 9.43617 0.0078125H24.7602V7.70727L24.7615 7.70853ZM12.166 5.7658C12.166 6.07365 12.4134 6.32809 12.7283 6.32809H21.7701C22.0849 6.32809 22.3324 6.07365 22.3324 5.7658C22.3324 5.45091 22.0849 5.2035 21.7701 5.2035H12.7283C12.4134 5.2035 12.166 5.45091 12.166 5.7658ZM28.0903 25.4997C28.0903 25.1919 27.8359 24.9374 27.528 24.9374H12.7283C12.4134 24.9374 12.166 25.1919 12.166 25.4997C12.166 25.8146 12.4134 26.062 12.7283 26.062H27.528C27.8359 26.062 28.0903 25.8146 28.0903 25.4997ZM28.0903 20.5655C28.0903 20.2577 27.8359 20.0032 27.528 20.0032H12.7283C12.4134 20.0032 12.166 20.2577 12.166 20.5655C12.166 20.8804 12.4134 21.1278 12.7283 21.1278H27.528C27.8359 21.1278 28.0903 20.8804 28.0903 20.5655ZM28.0903 15.6328C28.0903 15.3249 27.8359 15.0705 27.528 15.0705H12.7283C12.4134 15.0705 12.166 15.3249 12.166 15.6328C12.166 15.9406 12.4134 16.1951 12.7283 16.1951H27.528C27.8359 16.1951 28.0903 15.9406 28.0903 15.6328ZM12.7281 10.1375C12.4132 10.1375 12.1658 10.3849 12.1658 10.6998C12.1658 11.0077 12.4132 11.2621 12.7281 11.2621H27.5278C27.8357 11.2621 28.0901 11.0077 28.0901 10.6998C28.0901 10.3849 27.8357 10.1375 27.5278 10.1375H12.7281ZM25.8857 0.00784854V6.5827H32.4606L25.8857 0.00784854Z" fill="url(#paint0_linear_615_12813)"/>
<defs>
<linearGradient id="paint0_linear_615_12813" x1="0.460938" y1="15.7387" x2="32.4609" y2="15.7692" gradientUnits="userSpaceOnUse">
<stop offset="0.192587" stop-color="#F8A700"/>
<stop offset="0.22523" stop-color="#2BA1F3"/>
</linearGradient>
</defs>
</svg>
