<svg width="37" height="23" viewBox="0 0 37 23" fill="none" xmlns="http://www.w3.org/2000/svg">
<path d="M33.4143 0H3.91434C2.12397 0 0.666016 1.46132 0.666016 3.25338V14.5796H36.6643V3.25338C36.6643 1.46301 35.2064 0 33.416 0H33.4143ZM10.4278 6.69406H4.20291C3.9616 6.69406 3.76418 6.49663 3.76418 6.25534C3.76418 6.01404 3.96161 5.81661 4.20291 5.81661H10.4278C11.0032 5.82674 11.0066 6.68396 10.4278 6.69406ZM10.4278 4.2844H4.20291C3.6275 4.27765 3.62413 3.41706 4.20291 3.40695H10.4278C11.0032 3.41707 11.0066 4.27766 10.4278 4.2844ZM30.3549 7.57324C29.9854 7.57324 29.6395 7.49899 29.3138 7.34544C28.9932 7.49394 28.6422 7.57324 28.2692 7.57324C24.9314 7.45512 24.9365 2.646 28.2692 2.52937C28.6422 2.52937 28.9932 2.61205 29.3138 2.76223C29.6395 2.60868 29.9854 2.52937 30.3549 2.52937C33.6911 2.65086 33.6876 7.45315 30.3549 7.57324Z" fill="#2BA1F3"/>
<path d="M0.664062 15.457H36.6624V17.2002H0.664062V15.457Z" fill="#F09E24"/>
<path d="M0.664062 18.0781V19.3555C0.664062 21.1459 2.12202 22.6089 3.91239 22.6089H33.4141C35.2044 22.6089 36.6624 21.1476 36.6624 19.3555V18.0781H0.664062Z" fill="#F09E24"/>
<path d="M30.354 3.40625C30.2967 3.40625 30.2393 3.41131 30.1836 3.41469C30.5616 3.85341 30.7945 4.42886 30.7945 5.05153C30.7945 5.67419 30.5667 6.24623 30.1887 6.68496C32.4617 6.83008 32.6338 3.494 30.3557 3.40626L30.354 3.40625Z" fill="#2BA1F3"/>
<path d="M29.1301 3.64937C28.0923 2.97271 26.5921 3.79449 26.6276 5.05501C26.6276 5.95951 27.365 6.69691 28.2695 6.69691C29.9198 6.70366 30.529 4.50155 29.1301 3.64937Z" fill="#2BA1F3"/>
</svg>
