<svg width="37" height="38" viewBox="0 0 37 38" fill="none" xmlns="http://www.w3.org/2000/svg">
<path d="M7.78031 6.2069C7.78031 4.97929 8.14433 3.77925 8.82636 2.75853C9.50838 1.73781 10.4778 0.94226 11.6119 0.472475C12.7461 0.00268935 13.9941 -0.120228 15.1981 0.119267C16.4021 0.358761 17.5081 0.949911 18.3761 1.81796C19.2442 2.68601 19.8353 3.79197 20.0748 4.99599C20.3143 6.20001 20.1914 7.44801 19.7216 8.58218C19.2518 9.71634 18.4563 10.6857 17.4356 11.3677C16.4149 12.0498 15.2148 12.4138 13.9872 12.4138C12.341 12.4138 10.7623 11.7599 9.59826 10.5958C8.43425 9.43182 7.78031 7.85307 7.78031 6.2069ZM36.332 28.5517C36.332 30.2704 35.8224 31.9504 34.8676 33.3794C33.9127 34.8084 32.5556 35.9222 30.9678 36.5799C29.3799 37.2376 27.6327 37.4097 25.9471 37.0744C24.2615 36.7391 22.7131 35.9115 21.4979 34.6962C20.2826 33.481 19.455 31.9326 19.1197 30.247C18.7844 28.5614 18.9565 26.8142 19.6142 25.2263C20.2719 23.6385 21.3857 22.2814 22.8147 21.3265C24.2437 20.3717 25.9237 19.8621 27.6424 19.8621C29.947 19.8621 32.1573 20.7776 33.7869 22.4072C35.4165 24.0368 36.332 26.2471 36.332 28.5517ZM28.8838 27.3103H26.401V33.5172H28.8838V27.3103ZM28.8838 24.8276C28.8838 24.5821 28.8109 24.3421 28.6745 24.1379C28.5381 23.9338 28.3443 23.7747 28.1174 23.6807C27.8906 23.5867 27.641 23.5622 27.4002 23.6101C27.1594 23.658 26.9382 23.7762 26.7646 23.9498C26.591 24.1234 26.4727 24.3446 26.4248 24.5854C26.3769 24.8262 26.4015 25.0758 26.4955 25.3026C26.5894 25.5295 26.7486 25.7234 26.9527 25.8598C27.1568 25.9962 27.3969 26.069 27.6424 26.069C27.9716 26.069 28.2874 25.9382 28.5202 25.7054C28.753 25.4726 28.8838 25.1568 28.8838 24.8276ZM23.0617 18.3724C21.0959 16.6242 18.6671 15.4811 16.0671 15.0804C13.4672 14.6797 10.8068 15.0385 8.40595 16.1137C6.00507 17.1889 3.96587 18.9348 2.53355 21.1413C1.10122 23.3478 0.336745 25.9211 0.332031 28.5517L0.332031 29.7931H16.5444C16.4945 29.3812 16.4697 28.9666 16.47 28.5517C16.4721 26.4005 17.0952 24.2956 18.2645 22.4899C19.4338 20.6842 21.0996 19.2544 23.0617 18.3724Z" fill="url(#paint0_linear_615_12806)"/>
<defs>
<linearGradient id="paint0_linear_615_12806" x1="18.332" y1="0" x2="18.332" y2="37.2414" gradientUnits="userSpaceOnUse">
<stop offset="0.339794" stop-color="#F8A700"/>
<stop offset="0.413288" stop-color="#2BA1F3"/>
</linearGradient>
</defs>
</svg>
