<svg width="40" height="39" viewBox="0 0 40 39" fill="none" xmlns="http://www.w3.org/2000/svg">
<circle cx="26.166" cy="23.5" r="3" fill="#F09E24"/>
<path d="M32.2769 14.936L31.7329 13.6176C33.5985 9.3136 33.4769 9.1856 33.1121 8.8176L30.7281 6.44L30.4913 6.2352H30.2161C30.0689 6.2352 29.6369 6.2352 26.0113 7.912L24.6769 7.3616C22.9521 3 22.7761 3 22.2641 3H18.9073C18.4017 3 18.2065 3 16.6097 7.3776L15.2817 7.928C12.8337 6.872 11.3969 6.328 11.0097 6.328H10.6897L8.12966 8.888C7.73606 9.288 7.59846 9.4192 9.57286 13.656L9.02886 14.9712C4.66406 16.6928 4.66406 16.8592 4.66406 17.4V20.7536C4.66406 21.2816 4.66406 21.4672 9.04486 23.0704L9.58886 24.3824C7.72326 28.6864 7.84806 28.8144 8.20966 29.1824L10.5937 31.5632L10.8305 31.7712H11.1089C11.2529 31.7712 11.6817 31.7712 15.3105 30.0912L16.6417 30.6448C18.3665 35 18.5425 35 19.0641 35H22.4145C22.9297 35 23.1121 35 24.7153 30.6256L26.0497 30.0752C28.4977 31.1312 29.9281 31.6752 30.3153 31.6752H30.6353L33.2209 29.0928C33.5889 28.7152 33.7169 28.584 31.7553 24.3632L32.2961 23.048C36.6641 21.3072 36.6641 21.1248 36.6641 20.6V17.2464C36.6641 16.7184 36.6641 16.5328 32.2769 14.936ZM20.6641 24.5968C19.5558 24.5993 18.4717 24.273 17.5491 23.659C16.6264 23.0451 15.9066 22.1712 15.4809 21.148C15.0552 20.1247 14.9427 18.9982 15.1575 17.911C15.3724 16.8238 15.9051 15.8247 16.6881 15.0404C17.471 14.2561 18.4692 13.7217 19.556 13.505C20.6429 13.2882 21.7696 13.3988 22.7935 13.8228C23.8175 14.2467 24.6926 14.965 25.3082 15.8866C25.9237 16.8082 26.2519 17.8917 26.2513 19C26.2487 20.4819 25.6596 21.9026 24.6126 22.9514C23.5656 24.0001 22.146 24.5917 20.6641 24.5968Z" fill="#2BA1F3"/>
<circle cx="21.1641" cy="19.5" r="6.5" fill="#F09E24"/>
</svg>
