<svg width="73" height="72" viewBox="0 0 73 72" fill="none" xmlns="http://www.w3.org/2000/svg">
<circle cx="36.5" cy="36" r="36" fill="#23A26D" fill-opacity="0.12"/>
<path d="M37 19.3333C27.8167 19.3333 20.3334 26.8166 20.3334 36C20.3334 45.1833 27.8167 52.6666 37 52.6666C46.1834 52.6666 53.6667 45.1833 53.6667 36C53.6667 26.8166 46.1834 19.3333 37 19.3333ZM44.9667 32.1666L35.5167 41.6166C35.2834 41.85 34.9667 41.9833 34.6334 41.9833C34.3 41.9833 33.9834 41.85 33.75 41.6166L29.0334 36.9C28.55 36.4166 28.55 35.6166 29.0334 35.1333C29.5167 34.65 30.3167 34.65 30.8 35.1333L34.6334 38.9666L43.2 30.4C43.6834 29.9166 44.4834 29.9166 44.9667 30.4C45.45 30.8833 45.45 31.6666 44.9667 32.1666Z" fill="#23A26D"/>
</svg>
