<svg width="33" height="37" viewBox="0 0 33 37" fill="none" xmlns="http://www.w3.org/2000/svg">
<path d="M12.1647 7.78408H6.11132L8.70563 5.18977C8.88768 5.00771 8.88768 4.59809 8.70563 4.41603L7.29469 3.0506C7.11263 2.86855 6.70301 2.86855 6.52095 3.0506L2.47019 7.14688L0.695136 8.87642C0.51308 9.05847 0.51308 9.4681 0.695136 9.65016L2.47019 11.4252L6.56646 15.5215C6.74852 15.7035 7.15815 15.7035 7.3402 15.5215L8.75114 14.1105C8.9332 13.9285 8.9332 13.5189 8.75114 13.3368L6.15684 10.7425H12.2102C12.4833 10.7425 12.7109 10.5149 12.7109 10.1963V8.33025C12.6654 8.01165 12.4833 7.78408 12.1647 7.78408Z" fill="#F09E24"/>
<path d="M20.9479 26.2671H27.0013L24.407 23.6728C24.2249 23.4907 24.2249 23.0811 24.407 22.899L25.8179 21.4881C26 21.306 26.4096 21.306 26.5917 21.4881L30.6424 25.5844L32.4175 27.3594C32.5995 27.5415 32.5995 27.9511 32.4175 28.1332L30.6424 29.9082L26.5917 34.0045C26.4096 34.1866 26 34.1866 25.8179 34.0045L24.407 32.6391C24.2249 32.457 24.2249 32.0474 24.407 31.8653L27.0013 29.271H20.9479C20.6748 29.271 20.4473 29.0435 20.4473 28.7249V26.8588C20.4473 26.4947 20.6293 26.2671 20.9479 26.2671Z" fill="#2BA1F3"/>
<path d="M31.1413 0.550781H16.4402C15.6665 0.550781 15.0293 1.18798 15.0293 1.96172V16.6628C15.0293 17.4365 15.6665 18.0737 16.4402 18.0737H31.1413C31.9606 18.0737 32.5978 17.4365 32.5522 16.6628V1.91621C32.5522 1.14247 31.915 0.550781 31.1413 0.550781ZM26.4534 7.28688H24.5418V6.51314C24.5418 6.51314 24.5418 6.46762 24.4962 6.46762H23.1308C23.1308 6.46762 23.0853 6.46762 23.0853 6.51314V7.6965L25.4065 9.10744C25.9982 9.47156 26.3623 10.1088 26.3623 10.7915V12.0659C26.3623 13.0217 25.6796 13.7954 24.7693 13.9775V15.1153H22.8577V13.9775C21.9019 13.8409 21.1737 13.0217 21.1737 12.0203V11.1101H23.0853V12.0203C23.0853 12.0203 23.0853 12.0659 23.1308 12.0659H24.4052C24.4052 12.0659 24.4507 12.0659 24.4507 12.0203V10.7915L22.1295 9.38053C21.5378 9.01641 21.1737 8.37922 21.1737 7.6965V6.51314C21.1737 5.51182 21.9019 4.69257 22.8577 4.55603V3.46369H24.7693V4.55603C25.6796 4.69257 26.4078 5.51182 26.4078 6.46762V7.28688H26.4534Z" fill="#F09E24"/>
<path d="M9.29595 18.9805C4.47145 18.9805 0.511719 22.8947 0.511719 27.7647C0.511719 32.6347 4.42594 36.5489 9.29595 36.5489C14.166 36.5489 18.0802 32.6347 18.0802 27.7647C18.0802 22.8947 14.1205 18.9805 9.29595 18.9805ZM11.9358 25.7621H10.0242V24.9883C10.0242 24.9883 10.0242 24.9428 9.97866 24.9428H8.61324C8.61324 24.9428 8.56773 24.9428 8.56773 24.9883V26.1717L10.8889 27.5826C11.4806 27.9468 11.8447 28.584 11.8447 29.2667V30.5411C11.8447 31.4969 11.162 32.2706 10.2517 32.4527V33.545H8.34015V32.4527C7.38436 32.3161 6.65613 31.4969 6.65613 30.4956V29.5853H8.56773V30.4956C8.56773 30.4956 8.56772 30.5411 8.61324 30.5411H9.88764C9.88764 30.5411 9.93315 30.5411 9.93315 30.4956V29.2212L7.61193 27.8102C7.02024 27.4461 6.65613 26.8089 6.65613 26.1262V24.9428C6.65613 23.9415 7.38436 23.1223 8.34015 22.9857V21.8934H10.2517V23.0767C11.162 23.2133 11.8903 24.0325 11.8903 24.9883V25.7621H11.9358Z" fill="#2BA1F3"/>
</svg>
