<svg width="38" height="41" viewBox="0 0 38 41" fill="none" xmlns="http://www.w3.org/2000/svg">
<path fill-rule="evenodd" clip-rule="evenodd" d="M29.8813 28.0216C30.3615 25.7166 29.6755 23.2263 27.8095 21.4393C25.5456 19.2715 22.1843 18.7741 19.4262 19.9541C19.2066 20.0433 19.0557 20.2354 19.0145 20.4617C18.9734 20.6881 19.0557 20.9214 19.2204 21.0791L22.7877 24.4955C23.117 24.8042 23.2953 25.2192 23.2953 25.6549C23.2953 26.0905 23.1169 26.5073 22.7877 26.8142C22.4584 27.135 22.0056 27.3099 21.5391 27.3099C21.0588 27.3099 20.6061 27.135 20.2768 26.8142L16.7095 23.3996C16.5448 23.2469 16.3253 23.1801 16.1058 23.2212C15.8863 23.2624 15.7079 23.4047 15.6118 23.6054C14.3633 26.2723 14.8847 29.5155 17.176 31.702C19.042 33.4942 21.6627 34.146 24.0775 33.652C24.8321 34.3278 27.2057 36.4459 30.3204 39.4282C31.0887 40.164 32.1315 40.579 33.2291 40.579C34.3131 40.579 35.3558 40.164 36.1242 39.4282V39.4248C36.9062 38.6787 37.3453 37.6669 37.3453 36.6104C37.3453 35.5539 36.9062 34.542 36.1242 33.7959C33.0508 30.8546 30.6909 28.7487 29.8813 28.0216ZM28.4544 28.08C28.3857 28.3355 28.4544 28.6065 28.6602 28.7814C28.6602 28.7814 31.3631 31.1362 35.1775 34.7859C35.6851 35.2713 35.9733 35.9265 35.9733 36.6107C35.9733 37.2951 35.6851 37.9502 35.1775 38.4355C34.6561 38.9312 33.9564 39.2073 33.2292 39.2073C32.4883 39.2073 31.7886 38.9312 31.2809 38.4355C27.4255 34.7585 24.7087 32.3884 24.7087 32.3884C24.544 32.2409 24.3108 32.1861 24.0913 32.2409C22.0332 32.7657 19.7282 32.2581 18.1228 30.7111C16.5312 29.195 15.9961 27.0546 16.5175 25.1167L19.3302 27.8076C19.9202 28.3667 20.7022 28.6823 21.5391 28.6823C22.3624 28.6823 23.1581 28.3667 23.7344 27.8076C24.3381 27.2365 24.6674 26.463 24.6674 25.6552C24.6674 24.8492 24.3381 24.0739 23.7344 23.5046L20.9903 20.8771C23.0209 20.3934 25.2711 20.9097 26.8627 22.4309C28.4542 23.9608 28.9895 26.1283 28.4544 28.08ZM19.7005 4.7363V7.99321C19.7005 8.36881 19.3986 8.67409 19.0145 8.67923L17.4092 8.70153C17.4092 8.37224 17.272 8.0584 17.0387 7.82513C16.8055 7.58502 16.4762 7.45125 16.1469 7.45125C15.7216 7.45125 15.1591 7.44953 14.7474 7.44953C14.4044 7.44953 14.0752 7.58502 13.8419 7.8217C13.6086 8.0601 13.4714 8.38422 13.4714 8.72212V8.7547L10.6862 8.79243C5.80168 8.85761 1.89146 12.8314 1.89146 17.7105V22.0239C1.57589 22.0393 1.27406 22.1714 1.05453 22.396C0.807566 22.6344 0.684082 22.9586 0.684082 23.2947V24.6959C0.684082 25.0338 0.807566 25.3579 1.05453 25.5964C1.28778 25.8347 1.61705 25.9702 1.94634 25.9702H11.1393C11.4686 25.9702 11.7978 25.8347 12.0311 25.5964C12.278 25.358 12.4015 25.0338 12.4015 24.6959V23.2947C12.4015 22.9586 12.278 22.6344 12.0311 22.396C11.7978 22.1662 11.496 22.0324 11.1804 22.0222V18.7258C11.1804 18.3519 11.4823 18.0467 11.8527 18.0398L13.458 18.0192C13.4854 18.3142 13.6226 18.5921 13.8284 18.8047C14.0754 19.0431 14.3909 19.1786 14.734 19.1786H16.1334C16.4765 19.1786 16.792 19.0448 17.039 18.8064C17.2585 18.5818 17.3957 18.2816 17.4094 17.9661L20.1947 17.9283C25.0656 17.8614 28.9894 13.8894 28.9894 9.01156V4.73591C29.305 4.72391 29.6068 4.59013 29.8401 4.36374C30.0733 4.12535 30.2105 3.80123 30.2105 3.46333V2.06213C30.2105 1.72598 30.0733 1.40184 29.8401 1.16343C29.5931 0.923326 29.2776 0.789551 28.9345 0.789551H19.7557C19.4127 0.789551 19.0971 0.923326 18.8501 1.16343C18.6169 1.40183 18.4797 1.72595 18.4797 2.06213V3.46333C18.4797 3.8012 18.6169 4.12534 18.8501 4.36374C19.0834 4.58842 19.3852 4.72219 19.7008 4.73591L19.7005 4.7363ZM11.0292 23.3944H2.05575V24.5983H11.0292V23.3944ZM13.4714 10.1266L10.6999 10.1643C6.57003 10.2192 3.26315 13.5807 3.26315 17.7108V22.0224H9.8077V18.7261C9.8077 17.601 10.7133 16.6835 11.8383 16.668L13.4573 16.6474L13.4714 10.1266ZM14.8434 8.8214L14.8297 17.8067H16.0371V8.82315L14.8434 8.8214ZM21.0727 4.73784V7.99303C21.0727 9.11982 20.1672 10.0356 19.0421 10.0511L17.4094 10.0734V16.5925L20.1672 16.5565C24.297 16.5016 27.6175 13.1383 27.6175 9.01175V4.73782L21.0727 4.73784ZM19.8516 3.36579H28.8387V2.16182H19.8516V3.36579Z" fill="#626165"/>
</svg>
