<svg width="34" height="36" viewBox="0 0 34 36" fill="none" xmlns="http://www.w3.org/2000/svg">
<path d="M32.7473 29.3475L26.4315 23.0317C26.0526 22.6528 25.421 22.6528 25.0421 23.0317L24.1579 23.916L23.0842 22.8423C23.021 22.7791 23.021 22.7791 23.0842 22.716L31.9894 6.92648C32.3052 6.42122 32.1789 5.72648 31.8 5.34753L27.3158 0.863322C26.8105 0.358059 25.9263 0.358059 25.421 0.863322L24.4736 1.62122L24.221 1.36859C23.7789 0.92648 23.0842 0.92648 22.6421 1.36859L21.5684 2.44227L20.7473 1.62122C19.9894 0.863322 18.7263 0.863322 17.9684 1.62122L0.915753 18.6738C0.157858 19.4317 0.157858 20.6949 0.915753 21.4528L1.73681 22.2738L0.663122 23.3475C0.221017 23.7896 0.221017 24.4844 0.663122 24.9265L2.0526 26.316C2.24207 26.5054 2.55786 26.6317 2.87365 26.6317C3.18944 26.6317 3.44207 26.5054 3.6947 26.316L3.88417 26.1265V30.8633C3.88417 31.937 4.76838 32.8212 5.84207 32.8212C6.91575 32.8212 7.79996 31.937 7.79996 30.8633V29.2844C7.79996 28.9054 8.11575 28.5896 8.4947 28.5896C8.87365 28.5896 9.18944 28.9054 9.18944 29.2844V33.8317C9.18944 34.9054 10.0736 35.7896 11.1473 35.7896C12.221 35.7896 13.1052 34.9054 13.1052 33.8317V26.316C13.1052 25.937 13.421 25.6212 13.8 25.6212C14.1789 25.6212 14.4947 25.937 14.4947 26.316V29.3475C14.4947 30.4212 15.3789 31.3054 16.4526 31.3054C17.5263 31.3054 18.4105 30.4212 18.4105 29.3475V16.0212L25.4842 8.94753C26.2421 8.18964 26.2421 6.92648 25.4842 6.16859L24.6631 5.34753L25.7368 4.27385C26.1789 3.83174 26.1789 3.13701 25.7368 2.6949L25.4842 2.44227L26.1789 1.68438C26.2421 1.62122 26.3052 1.62122 26.3684 1.68438L30.8526 6.16859C30.9158 6.23174 30.9158 6.23174 30.8526 6.2949L21.9473 22.1475C21.6315 22.6528 21.7579 23.3475 22.1368 23.7265L23.2105 24.8002L22.3263 25.6844C22.1368 25.8738 22.0105 26.1265 22.0105 26.3791C22.0105 26.6317 22.1368 26.8844 22.3263 27.0738L24.1579 28.9054L28.6421 33.3896C29.0842 33.8317 29.7158 34.0844 30.4105 34.0844C31.0421 34.0844 31.6736 33.8317 32.1789 33.3896L32.7473 32.8212C33.6947 31.8738 33.6947 30.3581 32.7473 29.3475ZM2.81049 25.3686L1.54733 24.1054L2.62102 23.1581L3.82102 24.3581V24.4212L2.81049 25.3686ZM17.0842 29.4107C17.0842 29.7896 16.7684 30.1054 16.3894 30.1054C16.0105 30.1054 15.6947 29.7896 15.6947 29.4107V26.316C15.6947 25.2423 14.8105 24.3581 13.7368 24.3581C12.6631 24.3581 11.7789 25.2423 11.7789 26.316V33.8317C11.7789 34.2107 11.4631 34.5265 11.0842 34.5265C10.7052 34.5265 10.3894 34.2107 10.3894 33.8317V29.2844C10.3894 28.2107 9.50523 27.3265 8.43154 27.3265C7.35786 27.3265 6.47365 28.2107 6.47365 29.2844V30.8633C6.47365 31.2423 6.15786 31.5581 5.77891 31.5581C5.39996 31.5581 5.08417 31.2423 5.08417 30.8633V25.4949L5.58944 26.0002C5.96838 26.3791 6.47365 26.5686 6.97891 26.5686C7.48417 26.5686 7.98944 26.3791 8.36838 26.0002L17.1473 17.2212V29.4107H17.0842ZM24.4736 8.12648L7.42102 25.1791C7.16838 25.4317 6.66312 25.4317 6.41049 25.1791L3.06312 21.8317L1.79996 20.5686C1.54733 20.316 1.54733 19.8107 1.79996 19.5581L18.8526 2.50543C19.0421 2.37911 19.2315 2.31595 19.421 2.31595C19.6105 2.31595 19.8 2.37911 19.9263 2.50543L23.2736 5.8528L24.5368 7.11595C24.7894 7.36859 24.7894 7.81069 24.4736 8.12648ZM23.6526 4.52648L22.3894 3.26332L23.4631 2.31595L24.0947 2.94753L24.7263 3.57911L23.6526 4.52648ZM25.6736 24.0423L26.9368 25.3054L24.6 27.6423L23.3368 26.3791L25.6736 24.0423ZM31.8631 32.0002L31.2947 32.5686C30.8526 33.0107 30.0315 33.0107 29.5263 32.5686L25.4842 28.5265L27.821 26.1896L31.8631 30.2317C32.3684 30.737 32.3684 31.4949 31.8631 32.0002Z" fill="#626165"/>
</svg>
