<svg width="40" height="30" viewBox="0 0 40 30" fill="none" xmlns="http://www.w3.org/2000/svg">
<path d="M37.002 0H7.00195C5.3457 0 4.00195 1.34375 4.00195 3V4H40.002V3C40.002 1.34375 38.6582 0 37.002 0ZM4.00195 25C4.00195 26.6562 5.3457 28 7.00195 28H37.002C38.6582 28 40.002 26.6562 40.002 25V6H4.00195V25ZM26.002 10.5C26.002 10.225 26.227 10 26.502 10H35.502C35.777 10 36.002 10.225 36.002 10.5V11.5C36.002 11.775 35.777 12 35.502 12H26.502C26.227 12 26.002 11.775 26.002 11.5V10.5ZM26.002 14.5C26.002 14.225 26.227 14 26.502 14H35.502C35.777 14 36.002 14.225 36.002 14.5V15.5C36.002 15.775 35.777 16 35.502 16H26.502C26.227 16 26.002 15.775 26.002 15.5V14.5ZM26.002 18.5C26.002 18.225 26.227 18 26.502 18H35.502C35.777 18 36.002 18.225 36.002 18.5V19.5C36.002 19.775 35.777 20 35.502 20H26.502C26.227 20 26.002 19.775 26.002 19.5V18.5Z" fill="url(#paint0_linear_762_5188)"/>
<path d="M23.7805 15.2565H22.1388L21.0796 11.8834C20.55 10.1425 18.9613 9 17.2136 9H7.83989C6.03928 9 4.50347 10.1425 3.97388 11.8834L2.9147 15.2565H1.27297C0.584501 15.2565 0.00195312 15.8549 0.00195312 16.5622V17.3238C0.00195312 18.0311 0.584501 18.6295 1.27297 18.6295H1.7496C1.4848 19.8264 1.32593 21.0777 1.32593 22.329V28.6943C1.32593 29.4016 1.90848 30 2.59694 30H4.76826C5.45673 30 6.03928 29.4016 6.03928 28.6943V26.6813H18.9613V28.6943C18.9613 29.4016 19.5438 30 20.2323 30H22.4036C23.0921 30 23.6746 29.4016 23.6746 28.6943V22.3834C23.6746 21.1321 23.5157 19.8808 23.251 18.6839H23.7276C24.4161 18.6839 24.9986 18.0855 24.9986 17.3782V16.6166C25.0516 15.8549 24.469 15.2565 23.7805 15.2565ZM6.67479 12.7539C6.83366 12.2098 7.3103 11.8834 7.83989 11.8834H17.2136C17.7432 11.8834 18.2199 12.2098 18.3787 12.7539L19.5968 16.671H5.45673L6.67479 12.7539ZM7.89284 23.0907H5.29785C4.87418 23.0907 4.50347 22.7098 4.50347 22.2746V21.0233C4.50347 20.5337 4.92714 20.1529 5.40377 20.2073L7.83989 20.5881C8.15764 20.6425 8.42243 20.9145 8.47539 21.2409L8.63427 22.1114C8.74019 22.601 8.36947 23.0907 7.89284 23.0907ZM20.55 22.2746C20.55 22.7098 20.1793 23.0907 19.7557 23.0907H17.1607C16.684 23.0907 16.2604 22.601 16.3663 22.1114L16.5252 21.2409C16.5781 20.9145 16.8429 20.6425 17.1607 20.5881L19.5968 20.2073C20.0734 20.1529 20.4971 20.5337 20.4971 21.0233V22.2746H20.55Z" fill="#F09E24"/>
<circle cx="6.50195" cy="21.5" r="2.5" fill="#EDF7FF"/>
<circle cx="18.502" cy="21.5" r="2.5" fill="#EDF7FF"/>
<defs>
<linearGradient id="paint0_linear_762_5188" x1="22.002" y1="0" x2="22.002" y2="28" gradientUnits="userSpaceOnUse">
<stop offset="0.170907" stop-color="#F8A700"/>
<stop offset="0.211246" stop-color="#2BA1F3"/>
</linearGradient>
</defs>
</svg>
