<svg width="36" height="28" viewBox="0 0 36 28" fill="none" xmlns="http://www.w3.org/2000/svg">
<path d="M33 0H3C1.34375 0 0 1.34375 0 3V4H36V3C36 1.34375 34.6562 0 33 0ZM0 25C0 26.6562 1.34375 28 3 28H33C34.6562 28 36 26.6562 36 25V6H0V25ZM22 10.5C22 10.225 22.225 10 22.5 10H31.5C31.775 10 32 10.225 32 10.5V11.5C32 11.775 31.775 12 31.5 12H22.5C22.225 12 22 11.775 22 11.5V10.5ZM22 14.5C22 14.225 22.225 14 22.5 14H31.5C31.775 14 32 14.225 32 14.5V15.5C32 15.775 31.775 16 31.5 16H22.5C22.225 16 22 15.775 22 15.5V14.5ZM22 18.5C22 18.225 22.225 18 22.5 18H31.5C31.775 18 32 18.225 32 18.5V19.5C32 19.775 31.775 20 31.5 20H22.5C22.225 20 22 19.775 22 19.5V18.5ZM11 10C13.2063 10 15 11.7937 15 14C15 16.2062 13.2063 18 11 18C8.79375 18 7 16.2062 7 14C7 11.7937 8.79375 10 11 10ZM4.19375 22.7625C4.71875 21.1562 6.225 20 8 20H8.5125C9.28125 20.3187 10.1187 20.5 11 20.5C11.8813 20.5 12.725 20.3187 13.4875 20H14C15.775 20 17.2812 21.1562 17.8062 22.7625C18.0063 23.3812 17.4812 24 16.8312 24H5.16875C4.51875 24 3.99375 23.375 4.19375 22.7625Z" fill="url(#paint0_linear_588_10580)"/>
<defs>
<linearGradient id="paint0_linear_588_10580" x1="18" y1="0" x2="18" y2="28" gradientUnits="userSpaceOnUse">
<stop offset="0.170907" stop-color="#F8A700"/>
<stop offset="0.211246" stop-color="#2BA1F3"/>
</linearGradient>
</defs>
</svg>
