<svg width="43" height="24" viewBox="0 0 43 24" fill="none" xmlns="http://www.w3.org/2000/svg">
<path d="M42.4855 0.796369C42.325 0.662411 42.1146 0.604903 41.9086 0.642782L23.4708 3.93401C23.0332 3.59929 22.5016 3.42095 21.9468 3.45418L13.8859 3.94077C12.3996 3.98942 11.3198 5.62947 11.8259 7.02183C11.8259 7.02181 12.1567 8.03437 12.1567 8.03437C9.20148 6.47839 6.21906 10.7789 4.84173 12.4388C4.50529 12.6949 4.20375 12.9648 3.91801 13.2461L0.94532 14.0407C0.569221 14.1337 0.332552 14.5577 0.452541 14.9264C0.452533 14.9264 2.80352 22.6997 2.80352 22.6997C2.91253 23.0669 3.30228 23.2749 3.66064 23.177C3.66064 23.177 6.63768 22.3812 6.63768 22.3812C7.03971 22.2824 7.26692 21.8168 7.11243 21.4359C12.0866 21.6336 17.9858 21.8272 18.6853 16.9157L23.2017 14.3998C23.6426 14.1524 23.9807 13.7714 24.1845 13.325L29.5996 11.1604C29.9696 11.0577 30.1829 10.3264 30.3586 10.0412L31.1383 10.431C31.4881 10.6056 31.9107 10.4637 32.0846 10.1156L32.4744 9.33595L33.254 9.72577C33.6036 9.90002 34.0265 9.75848 34.2004 9.41033L34.5902 8.63069L35.3698 9.02051C35.7194 9.19545 36.1419 9.05322 36.3161 8.70507L36.706 7.92543L37.4856 8.31525C37.8351 8.48984 38.258 8.34831 38.4319 7.99981L38.8217 7.22017L39.6014 7.60999C39.9506 7.78424 40.3735 7.6427 40.5477 7.29455L40.9375 6.5149L41.7172 6.90473C42.1646 7.14467 42.7532 6.78251 42.7379 6.27383C42.7379 6.27385 42.7379 1.33702 42.7379 1.33702C42.7379 1.12834 42.6456 0.930328 42.4855 0.796369ZM10.3892 9.15275C10.9155 8.98663 11.487 9.21942 11.9952 9.56573C10.5956 9.81741 9.40414 10.1575 8.39231 10.5354C9.10592 9.86321 9.81067 9.33289 10.3892 9.15275ZM3.95576 21.6377L2.01354 15.2153L3.62758 14.7838L5.47347 20.8891C5.47498 20.8937 5.47601 20.8983 5.47764 20.9029L5.56946 21.2066L3.95576 21.6377ZM16.3436 18.6603C14.98 19.9327 12.0729 20.3353 6.6769 19.9955L4.93213 14.2257C5.06161 14.0996 5.19656 13.9748 5.33788 13.8549C5.56265 13.8129 5.73387 13.633 5.8518 13.4393C7.19013 12.4653 9.61675 11.2271 13.6548 10.7416C15.3095 10.4072 17.1671 11.5903 17.2655 13.3107C17.3369 14.944 17.6816 17.551 16.3436 18.6603ZM18.4771 12.2461C18.2816 11.6487 17.9518 11.0998 17.4991 10.6363L16.6873 7.21397L18.2566 6.98634C18.5889 6.94157 18.8427 7.08965 18.9963 7.22326C19.2938 7.48223 19.4643 7.88686 19.4643 8.33316V11.7923L18.4771 12.2461ZM22.5133 13.1687L18.7492 15.2655C18.7415 14.7275 18.7241 14.2045 18.6965 13.6976L20.183 13.0141C20.6034 12.8313 20.8748 12.4001 20.8748 11.9159V8.33316C20.8748 7.47844 20.5277 6.6864 19.9223 6.15917C18.9488 5.18969 17.3786 5.72347 16.2141 5.85755C15.5469 5.93549 15.0884 6.69625 15.2658 7.33244C15.2658 7.33243 15.7923 9.55268 15.7923 9.55268C15.2357 9.35441 14.6429 9.26359 14.0494 9.29122L13.1658 6.58102C12.9649 6.03124 13.3811 5.36944 13.9703 5.34855C13.9703 5.34854 22.0263 4.86229 22.0263 4.86229C22.2805 4.84886 22.5147 4.93702 22.6972 5.10989C22.8862 5.28931 22.9906 5.53484 22.9906 5.80138V12.346C22.9906 12.6883 22.807 13.0038 22.5133 13.1687ZM41.3274 5.13262L40.9375 4.93771C40.5883 4.76346 40.1655 4.905 39.9912 5.25315L39.6014 6.03279L38.8217 5.64297C38.4729 5.46769 38.0497 5.61026 37.8754 5.95841L37.4856 6.73805L36.706 6.34823C36.3571 6.17329 35.9336 6.31517 35.7596 6.66367L35.3698 7.44331L34.5902 7.05349C34.2403 6.8789 33.8178 7.02043 33.6439 7.36893L33.254 8.14857L32.4744 7.75875C32.1249 7.5845 31.7027 7.72604 31.5281 8.07419L31.1383 8.85384L30.3586 8.46401C30.0091 8.28908 29.5862 8.4313 29.4123 8.77945L28.8272 9.94995L24.4011 11.7193C24.371 11.4015 24.4815 5.34563 24.3186 5.21544L41.3274 2.17934V5.13262Z" fill="#626165"/>
<path d="M42.0326 9.80029H37.5541C36.6276 9.81592 36.6268 11.1951 37.5541 11.2108L41.3273 11.2108V14.7853L40.1044 16.106C39.9839 16.2361 39.9168 16.4073 39.9168 16.585V18.9122H28.6326C28.5827 18.9122 28.5327 18.9174 28.4838 18.928L25.0309 19.6739H19.5135C18.5882 19.6892 18.5851 21.0686 19.5135 21.0845H25.1063C25.1562 21.0845 25.2062 21.0793 25.2551 21.0686L28.708 20.3227H40.622C41.0115 20.3227 41.3273 20.0069 41.3273 19.6175V16.8615L42.5501 15.5405C42.6707 15.4104 42.7378 15.2392 42.7378 15.0615V10.5056C42.7378 10.1161 42.422 9.80029 42.0326 9.80029Z" fill="#626165"/>
<path d="M29.6411 15.4426C29.7271 15.4426 29.8122 15.4268 29.8924 15.3961L33.4666 14.0321H38.5061C39.4314 14.0168 39.4343 12.6374 38.506 12.6216C38.5061 12.6216 33.3364 12.6216 33.3364 12.6216C33.2504 12.6216 33.1653 12.6374 33.0851 12.6681L29.5109 14.0321H26.3544C25.965 14.0321 25.6492 14.3479 25.6492 14.7374C25.6492 15.1268 25.965 15.4426 26.3544 15.4426H29.6411Z" fill="#626165"/>
<path d="M23.6958 17.5585C23.6958 17.9479 24.0116 18.2637 24.4011 18.2637H32.1589C32.2347 18.2637 32.3101 18.2517 32.3821 18.2276L36.5048 16.8532H38.5063C39.4325 16.8376 39.4338 15.4584 38.5062 15.4427C38.4118 15.4551 36.1641 15.4088 36.1674 15.4788L32.0446 16.8532H24.4011C24.0116 16.8532 23.6958 17.169 23.6958 17.5585Z" fill="#626165"/>
</svg>
