<svg width="36" height="36" viewBox="0 0 36 36" fill="none" xmlns="http://www.w3.org/2000/svg">
<g clip-path="url(#clip0_588_10585)">
<path d="M14.7895 29.5195C14.4295 29.5195 14.1895 29.8795 14.1895 30.4795C14.1895 30.9595 14.4295 31.4395 14.9095 31.4395C15.2695 31.4395 15.5095 31.0795 15.5095 30.4795C15.5095 29.9995 15.2695 29.5195 14.7895 29.5195Z" fill="#2BA1F3"/>
<path d="M5.18922 29.5195C5.18922 29.6395 5.06922 29.8795 5.06922 29.9995L4.94922 30.5995H5.54922L5.42922 29.9995C5.30922 29.8795 5.30922 29.7595 5.18922 29.5195Z" fill="#2BA1F3"/>
<path d="M2.90992 29.5195H2.66992V30.3595H2.90992C3.26992 30.3595 3.38992 30.2395 3.38992 29.8795C3.38992 29.5195 3.26992 29.5195 2.90992 29.5195Z" fill="#2BA1F3"/>
<path d="M12.1502 29.5195H11.9102V30.3595H12.1502C12.5102 30.3595 12.6302 30.2395 12.6302 29.8795C12.6302 29.5195 12.3902 29.5195 12.1502 29.5195Z" fill="#2BA1F3"/>
<path d="M17.4295 29.5195H17.1895V30.2395H17.4295C17.7895 30.2395 17.9095 30.1195 17.9095 29.8795C17.9095 29.6395 17.6695 29.5195 17.4295 29.5195Z" fill="#2BA1F3"/>
<path d="M33.1185 10.7675L15.5985 2.1275C15.4725 2.048 15.3195 2 15.156 2C14.8215 2 14.5335 2.198 14.4015 2.483L14.4 2.4875V2.6075L14.04 3.2075L12 7.4075H19.32H19.344C20.391 7.4075 21.24 8.2565 21.24 9.3035V9.329V36.9275C21.36 36.8075 21.48 36.6875 21.48 36.5675L33.48 11.9675C33.5535 11.8445 33.597 11.6945 33.597 11.5355C33.597 11.201 33.405 10.91 33.1245 10.7705L33.12 10.769L33.1185 10.7675Z" fill="#F09E24"/>
<path d="M14.5493 21.9605C13.8053 21.6995 12.9458 21.5285 12.0518 21.482L12.0293 21.4805V24.9605C13.2743 24.3935 14.1998 23.3105 14.5418 21.992L14.5493 21.9605Z" fill="#2BA1F3"/>
<path d="M14.9094 14.52C14.0934 14.8245 13.1499 15.0015 12.1659 15.0015C12.1179 15.0015 12.0699 15.0015 12.0234 15H12.0309V16.92H15.2709C15.2589 16.0605 15.1284 15.2355 14.8944 14.457L14.9109 14.52H14.9094Z" fill="#2BA1F3"/>
<path d="M12.0293 10.6797V13.9197C12.0623 13.9197 12.1028 13.9212 12.1418 13.9212C13.0103 13.9212 13.8383 13.7442 14.5898 13.4247L14.5493 13.4397C14.2223 12.1422 13.2788 11.1207 12.0563 10.6887L12.0293 10.6797Z" fill="#2BA1F3"/>
<path d="M16.1102 21.2394C16.5452 21.4779 16.8812 21.8529 17.0657 22.3059L17.0703 22.3194C18.0033 21.2544 18.6152 19.8894 18.7487 18.3864L18.7502 18.3594H16.4702C16.4792 18.5004 16.4838 18.6669 16.4838 18.8334C16.4838 19.6929 16.3472 20.5209 16.0938 21.2964L16.1102 21.2409V21.2394Z" fill="#2BA1F3"/>
<path d="M6.63086 23.2805C7.00886 23.6165 7.44386 23.8985 7.91936 24.1085L7.95086 24.1205C7.61936 23.6705 7.33586 23.156 7.12586 22.6055L7.11086 22.5605C6.88886 22.7465 6.72236 22.991 6.63386 23.27L6.63086 23.2805Z" fill="#2BA1F3"/>
<path d="M16.2299 11.8808C15.7799 11.5283 15.2714 11.1728 14.7434 10.8443L14.6699 10.8008C15.0974 11.3183 15.4604 11.9123 15.7319 12.5543L15.7499 12.6008C15.9899 12.6008 16.2299 12.2408 16.2299 11.8808Z" fill="#2BA1F3"/>
<path d="M14.9103 24.1205C15.3738 23.9 15.7698 23.618 16.1103 23.2805C16.0683 22.9715 15.8868 22.712 15.6348 22.5635L15.6303 22.5605C15.5073 23.159 15.2553 23.684 14.9043 24.128L14.9103 24.1205Z" fill="#2BA1F3"/>
<path d="M16.5905 17.0395H18.8705C18.701 15.493 18.1415 14.1025 17.294 12.9355L17.3105 12.9595C17.0765 13.432 16.703 13.8055 16.244 14.0335L16.2305 14.0395C16.3505 14.9995 16.4705 15.9595 16.5905 17.0395Z" fill="#2BA1F3"/>
<path d="M15.2693 18.3594H12.0293V20.1594C13.0733 20.1879 14.0588 20.4054 14.9633 20.7789L14.9093 20.7594C15.1268 20.0439 15.2573 19.2189 15.2693 18.3654V18.3594Z" fill="#2BA1F3"/>
<path d="M7.8295 11.1608C7.3675 11.3393 6.97 11.5823 6.625 11.8853L6.6295 11.8808C6.649 12.1703 6.784 12.4238 6.988 12.5993L6.9895 12.6007C7.1815 12.0442 7.468 11.5643 7.8325 11.1562L7.8295 11.1608Z" fill="#2BA1F3"/>
<path d="M6.63023 13.9209C6.25073 13.6599 5.93123 13.3404 5.67773 12.9729L5.67023 12.9609C4.73423 14.1084 4.12223 15.5529 3.99173 17.1339L3.99023 17.1609H6.15023C6.17723 15.9969 6.34973 14.8854 6.65273 13.8279L6.63023 13.9209Z" fill="#2BA1F3"/>
<path d="M10.7095 24.7205V21.4805C9.80798 21.5825 8.99498 21.7505 8.20898 21.986L8.30948 21.9605C8.61998 23.231 9.51398 24.242 10.6825 24.7115L10.7095 24.7205Z" fill="#2BA1F3"/>
<path d="M22.1101 7.68025C22.1101 7.66975 22.1101 7.65625 22.1101 7.64425C22.1101 7.16275 21.7426 6.76675 21.2731 6.72175H21.2686H1.70864C1.68464 6.71875 1.65614 6.71875 1.62764 6.71875C1.14014 6.71875 0.744141 7.11475 0.744141 7.60225C0.744141 7.63075 0.745641 7.65925 0.748641 7.68625V7.68325V35.0432V35.0568C0.748641 35.5802 1.17314 36.0033 1.69514 36.0033H1.70864H21.1486C21.6631 35.9673 22.0726 35.5578 22.1086 35.0462V35.0432L22.1101 7.68025ZM2.79014 16.8002C3.17264 12.5882 6.49814 9.26275 10.6756 8.88325L10.7101 8.88025V8.76025H12.0301V8.88025C16.4896 9.23425 19.9756 12.9393 19.9756 17.4603C19.9756 22.2123 16.1236 26.0658 11.3701 26.0658C11.1376 26.0658 10.9081 26.0567 10.6801 26.0387L10.7101 26.0403C6.24464 25.6458 2.77064 21.9243 2.77064 17.3898C2.77064 17.1828 2.77814 16.9757 2.79164 16.7733L2.79014 16.8002ZM2.91014 30.8402H2.67014V31.8003H2.07014V29.0403H2.91014C2.94914 29.0358 2.99414 29.0327 3.04064 29.0327C3.31064 29.0327 3.55814 29.1257 3.75314 29.2817L3.75014 29.2803C3.99014 29.4003 3.99014 29.6402 3.99014 29.8802C3.98564 30.1127 3.89564 30.3228 3.75014 30.4802C3.55064 30.7022 3.26114 30.8402 2.94014 30.8402C2.92964 30.8402 2.91914 30.8402 2.90864 30.8402H2.91014ZM5.79014 31.8003L5.55014 31.0802H4.83014L4.59014 31.8003H3.99014L4.83014 29.0403H5.67014L6.51014 31.8003H5.79014ZM7.47014 31.8003C7.43564 31.8033 7.39364 31.8047 7.35314 31.8047C7.13564 31.8047 6.92864 31.7583 6.74114 31.6758L6.75014 31.6803L6.87014 31.2002C7.04714 31.2782 7.25564 31.3247 7.47314 31.3247C7.51364 31.3247 7.55564 31.3232 7.59614 31.3202H7.59014C7.83014 31.3202 7.95014 31.2002 7.95014 31.0802C7.95014 30.9602 7.83014 30.8403 7.47014 30.7202C7.11014 30.4802 6.75014 30.2402 6.75014 29.8802C6.75014 29.4002 7.11014 29.0403 7.83014 29.0403C7.86464 29.0373 7.90664 29.0358 7.94714 29.0358C8.16464 29.0358 8.37164 29.0823 8.55914 29.1648L8.55014 29.1603L8.43014 29.6403C8.29814 29.5592 8.13614 29.5098 7.96514 29.5098C7.91714 29.5098 7.87064 29.5128 7.82564 29.5203H7.83014C7.59014 29.5203 7.47014 29.6402 7.47014 29.7603C7.47014 29.8803 7.59014 30.0002 7.95014 30.1203C8.35514 30.1952 8.65964 30.5402 8.67014 30.9587C8.67014 31.4387 8.31014 31.8003 7.47014 31.8003ZM9.75014 31.8003C9.71564 31.8033 9.67364 31.8047 9.63314 31.8047C9.41564 31.8047 9.20864 31.7583 9.02114 31.6758L9.03014 31.6803V31.2002C9.20714 31.2782 9.41564 31.3247 9.63314 31.3247C9.67364 31.3247 9.71564 31.3232 9.75614 31.3202H9.75014C9.99014 31.3202 10.2301 31.2002 10.2301 31.0802C10.2301 30.9602 10.1101 30.8403 9.75014 30.7202C9.34364 30.6827 9.02864 30.3437 9.02864 29.9297C9.02864 29.9117 9.02864 29.8952 9.03014 29.8772V29.8802C9.03014 29.4002 9.39014 29.0403 10.1101 29.0403C10.1446 29.0373 10.1866 29.0358 10.2271 29.0358C10.4446 29.0358 10.6516 29.0823 10.8391 29.1648L10.8301 29.1603L10.7101 29.6403C10.5781 29.5592 10.4161 29.5098 10.2451 29.5098C10.1971 29.5098 10.1506 29.5128 10.1056 29.5203H10.1101C9.87014 29.5203 9.75014 29.6402 9.75014 29.7603C9.75014 29.8803 9.87014 30.0002 10.2301 30.1203C10.6351 30.1952 10.9396 30.5402 10.9501 30.9587C10.8571 31.4478 10.4326 31.8152 9.92264 31.8152C9.86114 31.8152 9.80264 31.8108 9.74414 31.8003H9.75014ZM12.9901 30.6003C12.8431 30.7697 12.6286 30.8762 12.3871 30.8762C12.3031 30.8762 12.2206 30.8627 12.1441 30.8387L12.1501 30.8402H11.9101V31.8003H11.3101V29.0403H12.1501C12.1891 29.0358 12.2341 29.0327 12.2806 29.0327C12.5506 29.0327 12.7981 29.1257 12.9931 29.2817L12.9901 29.2803C13.2301 29.4003 13.2301 29.6402 13.2301 29.8802C13.2031 30.1502 13.1176 30.3948 12.9856 30.6077L12.9901 30.6003ZM16.1101 30.3602C16.1176 30.4128 16.1221 30.4743 16.1221 30.5358C16.1221 31.2168 15.5851 31.7703 14.9131 31.8003H14.9101H14.6701C13.9441 31.7943 13.3561 31.2062 13.3501 30.4802V30.3602C13.3471 30.3287 13.3456 30.2927 13.3456 30.2567C13.3456 29.5637 13.8706 28.9938 14.5441 28.9202H14.5501H14.6701H14.6761C15.3631 28.9202 15.9271 29.4452 15.9901 30.1157V30.1217L16.1101 30.3602ZM17.9101 31.8003C17.7901 31.5603 17.7901 31.4402 17.6701 31.2002C17.5501 30.8402 17.4301 30.7202 17.1901 30.7202H16.9501V31.8003H16.3501V29.0403H17.1901C17.2411 29.0312 17.2996 29.0267 17.3596 29.0267C17.6176 29.0267 17.8531 29.1227 18.0316 29.2817L18.0301 29.2803C18.1756 29.4377 18.2656 29.6478 18.2701 29.8787C18.2626 30.1983 18.0691 30.4727 17.7946 30.5988L17.7901 30.6003C18.0301 30.7202 18.0301 30.8402 18.1501 31.0802C18.1771 31.3502 18.2626 31.5947 18.3946 31.8078L18.3901 31.8003H17.9101ZM20.9101 29.6403H20.1901V31.8003H19.5901V29.6403H18.7501V29.1603H20.7901V29.6403H20.9101Z" fill="#2BA1F3"/>
<path d="M6.62937 21.2402C6.42387 20.3957 6.25437 19.3727 6.15687 18.3287L6.14937 18.2402H4.10938C4.28037 19.7462 4.83987 21.0977 5.68437 22.2212L5.66937 22.2002C5.93037 21.8207 6.24987 21.5012 6.61737 21.2477L6.62937 21.2402Z" fill="#2BA1F3"/>
<path d="M10.7107 18.3594H7.4707C7.4722 19.2159 7.6042 20.0424 7.8472 20.8179L7.8307 20.7594C8.6722 20.4654 9.6502 20.2524 10.6642 20.1624L10.7107 20.1594V18.3594Z" fill="#2BA1F3"/>
<path d="M10.7095 10.4395C9.38945 10.6795 8.54945 12.1195 8.18945 13.1995C8.92595 13.4935 9.77945 13.705 10.669 13.7965L10.7095 13.7995V10.4395Z" fill="#2BA1F3"/>
<path d="M10.7107 17.0395V15.1195C9.6667 15.091 8.6812 14.8735 7.7767 14.5L7.8307 14.5195C7.6042 15.274 7.4722 16.141 7.4707 17.038L10.7107 17.0395Z" fill="#2BA1F3"/>
</g>
<defs>
<clipPath id="clip0_588_10585">
<rect width="36" height="36" fill="white"/>
</clipPath>
</defs>
</svg>
