<svg width="32" height="38" viewBox="0 0 32 38" fill="none" xmlns="http://www.w3.org/2000/svg">
<path d="M40.7378 22.5737H35.8311C35.846 22.4855 35.857 22.3957 35.857 22.303V17.4048C35.857 16.3585 35.0564 15.5073 34.072 15.5073H25.8164C25.8736 15.3542 25.9163 15.1998 25.9408 15.0423C26.1609 13.6262 25.0268 12.3177 23.0507 10.3941L23.634 9.81077C23.8218 9.89627 24.0222 9.94338 24.2237 9.94338C24.5792 9.94338 24.9323 9.80985 25.2006 9.54155L30.6172 4.12502C30.8833 3.85919 31.0261 3.50331 31.0196 3.12368C31.0131 2.75177 30.8636 2.40113 30.5984 2.13622L28.9358 0.473396C28.3829 -0.0804691 27.4904 -0.0881788 26.9467 0.454893L21.5305 5.87111C21.0604 6.34117 21.0051 7.07144 21.3566 7.61852L20.8098 8.16545C18.8715 6.21026 17.5714 5.08307 16.1448 5.31262C14.7309 5.54052 13.5556 6.99766 11.6528 10.8812C7.83036 18.6831 9.85123 20.8952 10.0622 21.0895C10.1834 21.2202 10.868 21.8586 12.6486 21.8586C13.8161 21.8586 15.4583 21.5808 17.7179 20.7092V22.303C17.7179 22.3957 17.7289 22.4855 17.7438 22.5737H8.96338C8.1625 22.5737 7.51087 23.2611 7.51087 24.1061V29.3734C7.51087 29.4657 7.52182 29.5551 7.5367 29.6429H2.63063C1.6444 29.6429 0.842285 30.4959 0.842285 31.5444V36.074C0.842285 37.1222 1.6444 37.9752 2.63063 37.9752H17.193C17.6362 37.9752 18.037 37.7967 18.3498 37.5119C18.6625 37.7967 19.0634 37.9752 19.5066 37.9752H34.0693C34.5255 37.9752 34.9378 37.7872 35.2541 37.4873C35.5819 37.7872 36.0027 37.9752 36.4679 37.9752H40.653C41.6861 37.9752 42.5265 37.0803 42.5265 35.9806V31.6376C42.5265 31.1232 42.3378 30.6583 42.0364 30.3042C42.3381 29.9637 42.5265 29.5082 42.5265 29.0045V24.4749C42.5265 23.4267 41.7241 22.5737 40.7378 22.5737ZM41.2633 24.4749V29.0045C41.2633 29.3564 41.0277 29.6429 40.7378 29.6429C40.7274 29.6429 40.7187 29.6483 40.7084 29.6488C40.6895 29.6482 40.672 29.6429 40.653 29.6429H36.1321C35.8053 29.6429 35.5034 29.7531 35.254 29.9376C35.0146 29.7543 34.7228 29.6429 34.4051 29.6429H25.8396C25.7502 29.6429 25.6503 29.5322 25.6503 29.3734V24.1061C25.6503 23.9501 25.7471 23.8415 25.8354 23.8381H34.4051C34.4091 23.8381 34.4127 23.8369 34.4166 23.8369H40.7378C41.0277 23.8369 41.2633 24.1231 41.2633 24.4749ZM22.0523 9.43207L21.9727 9.3559C21.9573 9.33555 21.9404 9.31612 21.9219 9.29731L21.6953 9.06605L22.225 8.5362L22.6737 8.98491L22.1412 9.51738C22.1111 9.48851 22.0827 9.46122 22.0523 9.43207ZM27.8398 1.34798C27.867 1.32116 27.9003 1.3153 27.9243 1.3153C27.9487 1.32116 27.9974 1.32116 28.0427 1.36649L29.7056 3.02963C29.7491 3.07311 29.7561 3.1206 29.7568 3.14527C29.7571 3.16963 29.7518 3.20417 29.7241 3.23193L28.5751 4.38094L26.691 2.49677L27.8398 1.34798ZM22.4236 6.76421L25.7979 3.38986L27.682 5.27404L24.3075 8.64846C24.2576 8.69842 24.1648 8.68947 24.1049 8.62965L22.4421 6.96713C22.3983 6.92333 22.3912 6.87553 22.3909 6.85117C22.3903 6.82681 22.3958 6.79227 22.4236 6.76421ZM10.9753 20.2173C10.9593 20.1994 9.40592 18.338 12.7871 11.4369C14.3919 8.16182 15.4562 6.70315 16.3456 6.55974C16.3958 6.55173 16.4473 6.54772 16.4995 6.54772C17.3978 6.54772 18.6151 7.73135 20.3561 9.50516C20.3574 9.50643 20.3577 9.50821 20.3589 9.50948C20.3601 9.51063 20.3617 9.51094 20.3629 9.5121C20.482 9.63349 20.5965 9.74967 20.7207 9.87646L20.9523 10.1127C20.9748 10.1441 21.0004 10.1737 21.0288 10.2009L21.1786 10.3443C21.3563 10.5145 21.5272 10.6785 21.6947 10.8396C21.6977 10.8427 21.6986 10.847 21.7017 10.85C21.7054 10.8537 21.7105 10.8548 21.7142 10.8584C23.6179 12.6896 24.8337 13.9414 24.6927 14.8483C24.652 15.1099 24.4915 15.3882 24.2051 15.6915L24.2026 15.6942C23.5178 16.4176 22.1008 17.2859 19.7681 18.429C12.8629 21.8123 10.9873 20.2275 10.9753 20.2173ZM18.9811 22.303V20.188C19.4095 19.9994 19.8561 19.7924 20.3238 19.5632C22.6048 18.4456 24.0527 17.5784 24.9123 16.7705H34.072C34.3598 16.7705 34.5938 17.0551 34.5938 17.4048V22.303C34.5938 22.4609 34.4972 22.5703 34.4092 22.5737H34.4051C34.4029 22.5737 34.4012 22.5749 34.399 22.575H25.8457C25.8435 22.5749 25.8418 22.5737 25.8396 22.5737C25.8356 22.5737 25.832 22.5749 25.828 22.575H24.2093C24.2053 22.5749 24.2017 22.5737 24.1978 22.5737C24.1956 22.5737 24.1938 22.5749 24.1917 22.575H19.1768C19.1747 22.5749 19.1729 22.5737 19.1707 22.5737H19.1657C19.0777 22.5703 18.9811 22.4609 18.9811 22.303ZM8.77403 29.3734V24.1061C8.77403 23.9476 8.87395 23.8369 8.96338 23.8369H19.1583C19.1622 23.8369 19.1658 23.8381 19.1698 23.8381H24.202C24.2903 23.8415 24.3871 23.9501 24.3871 24.1061V29.3734C24.3871 29.5322 24.2872 29.6429 24.1978 29.6429H19.1707C18.8661 29.6429 18.5837 29.7433 18.3499 29.9132C18.1161 29.7433 17.8338 29.6429 17.5292 29.6429H8.96338C8.87395 29.6429 8.77403 29.5322 8.77403 29.3734ZM17.193 36.7121H2.63063C2.34105 36.7121 2.10544 36.4259 2.10544 36.074V31.5444C2.10544 31.1926 2.34105 30.9061 2.63063 30.9061H17.5292C17.6186 30.9061 17.7182 31.0168 17.7182 31.1756V36.074C17.7182 36.4259 17.4826 36.7121 17.193 36.7121ZM34.5944 36.074C34.5944 36.4259 34.3588 36.7121 34.0693 36.7121H19.5066C19.217 36.7121 18.9814 36.4259 18.9814 36.074V31.1756C18.9814 31.0168 19.0813 30.9061 19.1707 30.9061H34.4051C34.4945 30.9061 34.5944 31.0168 34.5944 31.1756V31.269V35.9806V36.074ZM41.2633 35.9806C41.2633 36.384 40.9895 36.7121 40.653 36.7121H36.4679C36.1315 36.7121 35.8576 36.384 35.8576 35.9806V31.269C35.8576 31.0723 35.9834 30.9061 36.1321 30.9061H40.653C40.9895 30.9061 41.2633 31.2342 41.2633 31.6376V35.9806Z" fill="#626165"/>
</svg>
