<svg width="45" height="31" viewBox="0 0 45 31" fill="none" xmlns="http://www.w3.org/2000/svg">
<path d="M3.50668 30.5462H40.8093C42.7145 30.5462 44.2633 28.9906 44.2633 27.0771V4.29623C44.2633 2.39104 42.7145 0.842285 40.8093 0.842285H3.50668C1.60287 0.842285 0.0527344 2.39104 0.0527344 4.29623V27.0923C0.0527344 28.9975 1.60287 30.5462 3.50668 30.5462ZM1.43431 4.29623C1.43431 3.13432 2.34477 2.22386 3.50668 2.22386H40.8093C41.9712 2.22386 42.8817 3.13432 42.8817 4.29623V27.0771C42.8817 28.2279 41.9519 29.1647 40.8093 29.1647H3.50668C2.34477 29.1647 1.43431 28.2542 1.43431 27.0923V4.29623Z" fill="#626165"/>
<path d="M14.9048 27.4375C21.3803 27.4375 26.6482 22.1696 26.6482 15.6941C26.6482 9.21864 21.3803 3.95068 14.9048 3.95068C8.42934 3.95068 3.16138 9.21864 3.16138 15.6941C3.16138 22.1696 8.42934 27.4375 14.9048 27.4375ZM14.9048 5.33226C20.619 5.33226 25.2666 9.97989 25.2666 15.6941C25.2666 21.4083 20.619 26.0559 14.9048 26.0559C9.19059 26.0559 4.54296 21.4083 4.54296 15.6941C4.54296 9.97989 9.19059 5.33226 14.9048 5.33226Z" fill="#626165"/>
<path d="M11.7271 18.7849C12.2313 18.7711 12.679 18.6136 13.0285 18.1715C13.1073 18.2309 13.1874 18.2862 13.2717 18.3387C13.2385 18.4451 13.2109 18.557 13.1888 18.6772C13.0686 19.3224 12.545 20.8435 12.1982 21.6351C11.8473 22.4378 11.908 23.5224 12.7011 24.0405C13.0644 24.2767 13.6654 24.3292 13.8671 24.3292H15.5941C16.6096 24.3292 17.5366 23.4464 17.5656 22.4641C17.5932 21.555 17.8046 20.6653 17.9221 19.7659C18.0271 18.9576 18.1293 18.0721 17.444 17.4807C17.48 17.431 17.5131 17.3799 17.5463 17.3274C17.6526 17.3605 17.7659 17.3868 17.8861 17.4103C18.5313 17.5291 20.0525 18.0541 20.8441 18.4009C21.1439 18.5321 21.481 18.6053 21.814 18.6053C22.3763 18.6053 22.9234 18.3967 23.2494 17.898C23.2632 17.8772 23.2757 17.8579 23.2881 17.8413C23.3931 17.6852 23.5382 17.4711 23.5382 17.0773V15.0049C23.5382 14.0199 22.893 12.9561 21.8471 12.9326C20.8911 12.9105 19.9419 12.7806 18.9914 12.6825C18.57 12.6397 18.0809 12.5305 17.6651 12.6259C17.5739 12.6466 16.6759 13.1398 16.7767 13.2144C16.6994 13.1564 16.6206 13.1011 16.5377 13.05C16.5709 12.9436 16.5985 12.8317 16.6206 12.7101C16.7408 12.0636 17.2644 10.5438 17.6112 9.75218C17.9621 8.94811 17.9013 7.86495 17.1083 7.34686C17.0876 7.33304 17.0682 7.32061 17.0517 7.30817C16.8955 7.20179 16.68 7.05811 16.2876 7.05811H14.2153C13.2302 7.05811 12.1664 7.7033 12.1429 8.74916C12.0365 9.91245 11.9067 11.0757 11.8251 12.2418C11.803 12.5651 11.7837 12.8594 11.9122 13.1647C11.9398 13.2296 12.3888 13.8762 12.4261 13.8209C12.3626 13.9052 12.3032 13.9909 12.2479 14.0807C12.1623 14.0572 12.0725 14.0365 11.9757 14.0185C11.5101 13.9328 10.3413 13.4921 8.84785 12.84C8.02857 12.4822 6.87633 12.8317 6.38173 13.5888C6.16344 13.9232 6.21732 14.2879 6.25324 14.5297C6.26015 14.5725 6.26844 14.6361 6.26982 14.6568V16.3838C6.26982 17.3771 7.30739 18.4285 8.30212 18.4561C9.28719 18.5542 10.2695 18.6496 11.2532 18.7601C11.4148 18.7794 11.5737 18.7891 11.7271 18.7849ZM14.9047 13.984C14.9171 13.984 14.9296 13.984 14.9434 13.984C16.5046 14.0019 17.1829 16.095 15.9644 17.0497C15.0884 17.7363 13.7538 17.3813 13.3186 16.363C12.8448 15.2522 13.7096 13.9978 14.9047 13.984ZM16.1426 22.3218C16.0818 22.6368 15.992 22.9476 15.5955 22.9476H13.8685C13.7469 22.9476 13.53 22.9076 13.4485 22.8758C13.3573 22.8413 13.378 22.5677 13.385 22.5014C13.4043 22.2997 13.4969 22.1215 13.5715 21.9363C13.9625 20.972 14.359 19.9551 14.5482 18.9272C14.5579 18.872 14.569 18.8264 14.5814 18.7849C14.6878 18.796 14.7955 18.8015 14.9061 18.8015C15.4173 18.8015 15.898 18.6772 16.3236 18.4575C16.535 18.4658 16.6234 18.5528 16.6317 18.7642C16.6579 19.4011 16.5239 20.0574 16.4313 20.686C16.3609 21.1682 16.2766 21.6476 16.1799 22.1256C16.1661 22.1905 16.155 22.2569 16.1426 22.3218ZM17.998 13.9688C19.0342 14.0627 20.0718 14.1622 21.1094 14.2506C21.4727 14.281 21.9715 14.1884 22.1069 14.6361C22.198 14.9373 22.1511 15.313 22.1594 15.6267C22.1704 16.0024 22.1801 16.3782 22.1911 16.754C22.1939 16.8424 22.1953 16.9336 22.169 17.0179C22.0668 17.3384 21.6275 17.2348 21.3995 17.1353C20.623 16.7969 18.9679 16.2055 18.1403 16.0536C18.0851 16.0439 18.0395 16.0328 17.998 16.0204C18.0091 15.914 18.0146 15.8063 18.0146 15.6957C18.0146 15.2205 17.9069 14.7701 17.7162 14.3667C17.7825 14.1428 17.9124 13.9853 17.998 13.9688ZM13.4941 8.84034C13.5148 8.77403 13.5425 8.71738 13.5784 8.6787C13.729 8.51567 13.9984 8.44107 14.2125 8.44107C14.7209 8.44107 15.228 8.44107 15.7364 8.44107C15.9215 8.44107 16.1702 8.36646 16.3291 8.4908C16.575 8.6856 16.3761 9.10975 16.2863 9.33218C16.0721 9.86133 15.8552 10.3905 15.677 10.9334C15.6328 11.0688 15.2197 12.6024 15.228 12.6024C15.1216 12.5913 15.0138 12.5858 14.9033 12.5858C14.428 12.5858 13.9776 12.6936 13.5742 12.8842C13.3518 12.8151 13.1943 12.6853 13.1777 12.5996C13.1252 12.3344 13.2385 11.942 13.2634 11.6712C13.2938 11.3382 13.3242 11.0053 13.3518 10.6709C13.4001 10.0962 13.3214 9.39297 13.4941 8.84034ZM7.6514 16.3851C7.6514 15.9721 7.6514 15.559 7.6514 15.1459C7.6514 14.9552 7.54225 14.3736 7.66245 14.2188C7.76607 14.0807 8.14877 14.0434 8.29383 14.1069C9.44883 14.6112 10.9796 15.2412 11.7229 15.378C11.7547 15.3835 11.7837 15.3904 11.81 15.3959C11.8003 15.494 11.7948 15.5935 11.7948 15.6944C11.7948 16.1696 11.9025 16.62 12.0946 17.0234C12.0269 17.2459 11.8998 17.4006 11.8113 17.4199C11.3015 17.5263 10.6522 17.326 10.141 17.2638C9.58699 17.1975 9.02607 17.1519 8.47344 17.069C8.11975 17.0151 7.6514 16.8162 7.6514 16.3851Z" fill="#626165"/>
<path d="M29.4112 7.75023H40.1185C40.4998 7.75023 40.8093 7.44076 40.8093 7.05944C40.8093 6.67813 40.4998 6.36865 40.1185 6.36865H29.4112C29.0299 6.36865 28.7205 6.67813 28.7205 7.05944C28.7205 7.44076 29.0299 7.75023 29.4112 7.75023Z" fill="#626165"/>
<path d="M29.4112 11.8948H40.1185C40.4998 11.8948 40.8093 11.5853 40.8093 11.204C40.8093 10.8227 40.4998 10.5132 40.1185 10.5132H29.4112C29.0299 10.5132 28.7205 10.8227 28.7205 11.204C28.7205 11.5853 29.0299 11.8948 29.4112 11.8948Z" fill="#626165"/>
<path d="M29.4112 16.0393H40.1185C40.4998 16.0393 40.8093 15.7298 40.8093 15.3485C40.8093 14.9672 40.4998 14.6577 40.1185 14.6577H29.4112C29.0299 14.6577 28.7205 14.9672 28.7205 15.3485C28.7205 15.7298 29.0299 16.0393 29.4112 16.0393Z" fill="#626165"/>
</svg>
